<svg xmlns="http://www.w3.org/2000/svg" xmlns:xlink="http://www.w3.org/1999/xlink" width="500" zoomAndPan="magnify" viewBox="0 0 375 374.999991" height="500" preserveAspectRatio="xMidYMid meet" version="1.0"><defs><g/><clipPath id="60bf2ea3b3"><rect x="0" width="145" y="0" height="340"/></clipPath><clipPath id="cfd9694428"><rect x="0" width="147" y="0" height="306"/></clipPath><clipPath id="b686e3e029"><rect x="0" width="145" y="0" height="313"/></clipPath></defs><g transform="matrix(1, 0, 0, 1, 126, 12)"><g clip-path="url(#60bf2ea3b3)"><g fill="#000000" fill-opacity="1"><g transform="translate(1.13339, 265.129575)"><g><path d="M 57.84375 -176.546875 L 57.84375 -29.21875 L 137.1875 -29.21875 L 137.1875 0 L 22.9375 0 L 22.9375 -176.546875 Z M 57.84375 -176.546875 "/></g></g></g></g></g><g transform="matrix(1, 0, 0, 1, 57, 69)"><g clip-path="url(#cfd9694428)"><g fill="#000000" fill-opacity="1"><g transform="translate(146.954084, 71.904394)"><g><path d="M -55.21875 74.015625 L -55.21875 27.90625 L -135.6875 27.90625 L -135.6875 0 L -21.90625 0 L -21.90625 168.546875 L -133.84375 168.546875 L -133.84375 140.65625 L -55.21875 140.65625 L -55.21875 101.21875 L -123.9375 101.21875 L -123.9375 74.015625 Z M -55.21875 74.015625 "/></g></g></g></g></g><g transform="matrix(1, 0, 0, 1, 172, 0)"><g clip-path="url(#b686e3e029)"><g fill="#000000" fill-opacity="1"><g transform="translate(0.512049, 238.241543)"><g><path d="M 57.84375 -176.546875 L 57.84375 -29.21875 L 137.1875 -29.21875 L 137.1875 0 L 22.9375 0 L 22.9375 -176.546875 Z M 57.84375 -176.546875 "/></g></g></g></g></g></svg>